<svg xmlns="http://www.w3.org/2000/svg" width="760" height="328" viewBox="0 0 760 328" font-family="-apple-system, Segoe UI, Helvetica, Arial, sans-serif">
<text x="190" y="26" font-size="15" font-weight="600" fill="#1f2328">Publication dates on 360 real pages, as their servers sent them</text>
<rect x="190" y="40" width="12" height="12" rx="2" fill="#58a6ff"/>
<text x="208" y="51" font-size="12" fill="#59636e">found (hit rate)</text>
<rect x="340" y="40" width="12" height="12" rx="2" fill="#3fb950"/>
<text x="358" y="51" font-size="12" fill="#59636e">right when it answers</text>
<line x1="190.0" y1="66" x2="190.0" y2="306" stroke="#d1d9e0" stroke-width="1"/>
<text x="190.0" y="322" font-size="11" fill="#59636e" text-anchor="middle">0.00</text>
<line x1="315.0" y1="66" x2="315.0" y2="306" stroke="#d1d9e0" stroke-width="1"/>
<text x="315.0" y="322" font-size="11" fill="#59636e" text-anchor="middle">0.25</text>
<line x1="440.0" y1="66" x2="440.0" y2="306" stroke="#d1d9e0" stroke-width="1"/>
<text x="440.0" y="322" font-size="11" fill="#59636e" text-anchor="middle">0.50</text>
<line x1="565.0" y1="66" x2="565.0" y2="306" stroke="#d1d9e0" stroke-width="1"/>
<text x="565.0" y="322" font-size="11" fill="#59636e" text-anchor="middle">0.75</text>
<line x1="690.0" y1="66" x2="690.0" y2="306" stroke="#d1d9e0" stroke-width="1"/>
<text x="690.0" y="322" font-size="11" fill="#59636e" text-anchor="middle">1.00</text>
<text x="178" y="89" font-size="14" font-weight="700" fill="#1f2328" text-anchor="end">sluicer</text>
<text x="178" y="106" font-size="11" fill="#59636e" text-anchor="end">36 dates invented</text>
<rect x="190" y="72" width="390.0" height="17" rx="3" fill="#58a6ff"/>
<text x="586.0" y="85" font-size="12" fill="#1f2328">0.780</text>
<rect x="190" y="93" width="367.0" height="17" rx="3" fill="#3fb950"/>
<text x="563.0" y="106" font-size="12" fill="#1f2328">0.734</text>
<text x="178" y="147" font-size="14" font-weight="400" fill="#1f2328" text-anchor="end">trafilatura</text>
<text x="178" y="164" font-size="11" fill="#59636e" text-anchor="end">187 dates invented</text>
<rect x="190" y="130" width="427.5" height="17" rx="3" fill="#58a6ff"/>
<text x="623.5" y="143" font-size="12" fill="#1f2328">0.855</text>
<rect x="190" y="151" width="196.5" height="17" rx="3" fill="#3fb950"/>
<text x="392.5" y="164" font-size="12" fill="#1f2328">0.393</text>
<text x="178" y="205" font-size="14" font-weight="400" fill="#1f2328" text-anchor="end">metascraper</text>
<text x="178" y="222" font-size="11" fill="#59636e" text-anchor="end">80 dates invented</text>
<rect x="190" y="188" width="405.5" height="17" rx="3" fill="#58a6ff"/>
<text x="601.5" y="201" font-size="12" fill="#1f2328">0.811</text>
<rect x="190" y="209" width="286.5" height="17" rx="3" fill="#3fb950"/>
<text x="482.5" y="222" font-size="12" fill="#1f2328">0.573</text>
<text x="178" y="263" font-size="14" font-weight="400" fill="#1f2328" text-anchor="end">newspaper4k</text>
<text x="178" y="280" font-size="11" fill="#59636e" text-anchor="end">54 dates invented</text>
<rect x="190" y="246" width="393.0" height="17" rx="3" fill="#58a6ff"/>
<text x="589.0" y="259" font-size="12" fill="#1f2328">0.786</text>
<rect x="190" y="267" width="329.0" height="17" rx="3" fill="#3fb950"/>
<text x="525.0" y="280" font-size="12" fill="#1f2328">0.658</text>
</svg>
